<svg xmlns="http://www.w3.org/2000/svg" viewBox="0 0 64 64" fill="none" aria-hidden="true">
  <circle cx="32" cy="32" r="30" stroke="#4a6741" stroke-width="1.5" opacity="0.35"/>
  <path d="M18 38c4-10 12-16 22-16 6 0 11 2 14 6" stroke="#4a6741" stroke-width="2" stroke-linecap="round"/>
  <path d="M22 42c5-7 12-11 20-11 5 0 9 1.5 12 4" stroke="#8aab7a" stroke-width="1.5" stroke-linecap="round" opacity="0.8"/>
  <path d="M32 14c0 6-2.5 10.5-7 13.5" stroke="#c45c26" stroke-width="2" stroke-linecap="round"/>
  <ellipse cx="32" cy="46" rx="14" ry="4.5" fill="#4a6741" opacity="0.12"/>
  <path d="M24 46h16c2.2 0 4 1.8 4 4v1H20v-1c0-2.2 1.8-4 4-4z" fill="#4a6741"/>
  <path d="M26 30c1.5-4 4-6.5 6-6.5s4.5 2.5 6 6.5" stroke="#4a6741" stroke-width="1.8" stroke-linecap="round"/>
</svg>
